<svg xmlns="http://www.w3.org/2000/svg" viewBox="0 0 64 64" id="brain">
  <path fill="#df4666" d="M48.26 25.24c.03.11.05.22.07.33H15.67c.01-.11.04-.22.06-.33-1.54-2.46-2.11-4.54-.73-6.44-.76-1.72-.11-4.21 1.66-6.05-.28-2.11.55-3.92 2.48-5.38.24-1.65 1.5-3.35 3.74-4.03C24.39 1.35 26.36.43 28.74.6c1.42.11 2.61 1.05 3.25 2.52.65-1.46 1.84-2.41 3.25-2.51 2.37-.17 4.35.75 5.86 2.74 2.23.67 3.49 2.37 3.73 4.03 1.94 1.46 2.77 3.27 2.5 5.38 1.76 1.84 2.37 4.3 1.61 6.02 1.4 1.89.86 4-.68 6.46z"></path>
  <path fill="#a72a45" d="M49.27 19.06c.84-1.79.7-4.36-1.2-6.29.33-2.22-.57-4.12-2.62-5.66-.22-1.73-1.53-3.52-3.89-4.22C39.97.78 37.96-.16 35.45.01c-1.54.13-2.81 1.23-3.45 2.9-.63-1.67-1.91-2.78-3.46-2.89-2.51-.17-4.5.77-6.11 2.88-2.35.69-3.66 2.49-3.88 4.22-2.06 1.54-2.95 3.44-2.62 5.66-1.9 1.93-2.05 4.5-1.21 6.29-1.48 2-1.41 4.24.22 6.85-.03.12-.06.25-.09.36h.79c.03-.11.06-.22.09-.34.03-.1.01-.21-.05-.31-1.49-2.3-1.65-4.12-.54-5.82.4.57.91 1 1.49 1.29.51.35 1.17.93 1.34 1.61.12.46.02.91-.31 1.38-.12.18-.08.41.1.54.07.04.14.07.22.07.12 0 .24-.06.32-.16.45-.66.6-1.33.41-2.02-.1-.37-.29-.71-.51-1.01.1.01.2.02.31.02.6 0 1.22-.11 1.87-.34.2-.07.31-.28.24-.48a.387.387 0 0 0-.49-.24c-1.19.41-2.3.37-3.18-.07-.11-.08-.2-.13-.28-.17-.42-.27-.79-.63-1.08-1.1-.95-1.57-.92-4.11 1-5.94.09-.09.13-.22.11-.35-.31-1.84.3-3.4 1.85-4.74.01.1.01.18.03.27.12.59.41 1.18.9 1.68.02.01.01.03.02.05.28.29.98 1.2.85 1.94-.06.36-.31.65-.75.88-.19.11-.26.34-.16.52.07.13.2.2.34.2.06 0 .12-.01.18-.04.66-.36 1.05-.84 1.15-1.44.07-.43-.04-.86-.19-1.26.42.13.9.22 1.46.22.27 0 .56-.02.86-.06.21-.03.36-.22.33-.43a.379.379 0 0 0-.42-.33c-2.44.32-3.58-.87-3.82-2.08-.35-1.72.85-3.91 3.45-4.62.08-.02.15-.08.2-.14C24.42 1.5 26.23.62 28.5.78c1.61.12 2.58 1.55 2.94 2.83.11.37.16.76.18 1.15v.46c-.04 1.24-.51 2.51-1.63 3.3-.16.12-.21.36-.09.54.12.17.36.21.54.09.5-.36.88-.79 1.18-1.27v12.05c-.49-.94-1.26-1.82-2.48-1.96-.21-.01-.4.13-.42.35-.02.21.13.39.34.42 2.01.2 2.53 3.44 2.56 3.68v3.85h.77v-3.85c.04-.24.55-3.48 2.55-3.68.21-.03.37-.21.35-.42a.41.41 0 0 0-.42-.35c-1.22.13-2 1.02-2.48 1.96V7.89c.3.48.68.91 1.18 1.27.17.12.41.09.54-.09a.39.39 0 0 0-.1-.54c-1.11-.8-1.58-2.06-1.62-3.3v-.47c.02-.39.08-.79.18-1.15.36-1.29 1.32-2.71 2.94-2.83 2.27-.16 4.07.72 5.52 2.68.05.07.12.12.2.14 2.59.71 3.79 2.9 3.45 4.62-.24 1.21-1.37 2.4-3.82 2.08-.21-.03-.4.12-.43.33-.02.21.12.4.34.43.31.04.6.06.86.06.56 0 1.04-.09 1.46-.22-.16.38-.26.83-.19 1.26.1.6.49 1.09 1.15 1.44.06.03.12.04.18.04.13 0 .27-.07.34-.2.1-.18.03-.41-.16-.52-.45-.23-.69-.52-.75-.88-.12-.73.57-1.65.85-1.94.02-.02.01-.04.02-.06.49-.49.8-1.09.91-1.67.02-.09.01-.17.03-.27 1.55 1.34 2.15 2.9 1.83 4.74-.03.12.02.26.11.35 1.92 1.83 1.95 4.38 1 5.94-.29.47-.66.84-1.08 1.1-.08.04-.17.1-.28.17-.89.44-1.99.48-3.18.07-.2-.07-.42.04-.49.24-.07.2.04.41.24.48.65.23 1.28.34 1.87.34.11 0 .2-.01.31-.02-.23.3-.42.63-.52 1.01-.17.68-.03 1.35.42 2.02.08.11.19.16.32.16.08 0 .14-.03.21-.07.17-.12.22-.36.1-.54-.32-.47-.42-.92-.31-1.37.19-.74.89-1.31 1.36-1.63.58-.29 1.08-.71 1.47-1.28 1.12 1.7.96 3.51-.53 5.82-.06.1-.08.21-.05.31.03.12.06.23.09.34h.78l-.09-.36c1.64-2.62 1.71-4.86.22-6.86zm-6.1 6.85c-.2-.09-.41.01-.5.21 0 .01-.03.07-.05.15h.79c0-.16-.09-.31-.24-.36zm-21.85.21c-.08-.2-.3-.3-.49-.21a.38.38 0 0 0-.25.36h.79c-.02-.08-.05-.14-.05-.15z"></path>
  <path fill="#a72a45" d="m37.24 5.42.06.27c-.04.23-.36 1.7-1.52 2.67-.16.14-.18.38-.05.54.08.09.18.14.29.14.09 0 .17-.03.25-.09.73-.61 1.17-1.38 1.44-2 .18.37.41.71.76.93.32.2.69.31 1.13.31.29 0 .6-.04.95-.13.2-.05.33-.26.28-.46a.386.386 0 0 0-.46-.28c-.65.17-1.14.14-1.47-.08-.42-.27-.69-.87-.88-1.95-.34-1.89-2.18-2.93-2.26-2.97a.37.37 0 0 0-.52.15c-.1.18-.03.42.15.52 0 0 1.58.89 1.85 2.43zm4.14 12.13c-.68-.02-1.13-.18-1.4-.48-.33-.37-.43-1.03-.32-2.11.19-1.91-1.29-3.41-1.36-3.47a.38.38 0 0 0-.54 0 .38.38 0 0 0 0 .54c.01.01 1.29 1.31 1.14 2.85l-.03.29c-.13.26-.84 1.54-2.19 2.14-.19.09-.28.31-.19.51.06.14.2.23.35.23.05 0 .11-.01.16-.03.87-.39 1.5-.99 1.92-1.52.07.41.21.79.48 1.09.41.47 1.05.71 1.95.74h.01c.21 0 .38-.16.38-.37.02-.22-.15-.4-.36-.41z"></path>
  <path fill="#3582a8" d="M39.18 22.32c-1.12 1.02-1.38 2.49-1.42 2.73.02.09.05.18.07.27.08.36.22.68.4.96h-.86c-.12-.24-.22-.51-.29-.8-.23-1.08-.52-1.66-.95-1.92-.35-.2-.83-.21-1.47-.02a.387.387 0 0 1-.48-.26c-.06-.2.06-.41.26-.47.86-.26 1.55-.22 2.08.1.35.21.6.54.79.9.24-.63.65-1.41 1.36-2.06.15-.14.39-.12.54.03.14.16.13.4-.03.54z"></path>
  <path fill="#a72a45" d="M28.26 2.32c-.08.04-1.92 1.08-2.26 2.97-.19 1.08-.46 1.68-.88 1.95-.34.22-.82.24-1.47.08-.2-.05-.41.07-.46.28-.05.2.07.41.28.46.35.09.66.13.95.13.44 0 .81-.1 1.13-.31.34-.22.57-.56.76-.93.26.63.71 1.39 1.44 2 .07.06.16.09.25.09.11 0 .22-.05.29-.14.14-.16.11-.4-.05-.54-1.16-.97-1.48-2.44-1.52-2.67l.06-.27c.27-1.53 1.86-2.43 1.87-2.43.18-.1.25-.34.15-.52a.407.407 0 0 0-.54-.15zm-3.19 14.17c.43.53 1.06 1.14 1.92 1.52.05.02.1.03.16.03.15 0 .29-.08.35-.23.09-.19 0-.42-.19-.51-1.35-.6-2.06-1.88-2.19-2.14-.01-.1-.02-.2-.02-.29-.16-1.54 1.12-2.84 1.14-2.85a.38.38 0 0 0 0-.54.38.38 0 0 0-.54 0c-.06.06-1.55 1.56-1.36 3.47.11 1.09.01 1.74-.32 2.11-.26.3-.72.46-1.4.48a.38.38 0 0 0 .01.76h.01c.9-.03 1.54-.27 1.95-.74.26-.28.41-.67.48-1.07z"></path>
  <path fill="#3582a8" d="M29.82 23.28c-.06.2-.27.32-.47.26-.65-.19-1.13-.18-1.47.02-.43.26-.73.85-.96 1.92-.06.29-.16.56-.28.8h-.87c.18-.28.34-.6.41-.96.02-.09.05-.18.07-.27-.04-.24-.3-1.71-1.43-2.73a.39.39 0 0 1-.02-.54c.13-.15.37-.17.54-.03.71.64 1.12 1.42 1.36 2.06.19-.36.44-.69.79-.9.54-.32 1.21-.36 2.07-.1.2.06.33.27.26.47z"></path>
  <path fill="#f2ba34" d="M13.4 20.75c-.02.27-.06.54-.08.82-.26 6.25 2.55 11.85 7.05 15.42 1.73 1.37 2.8 3.4 2.8 5.61v2.38c0 1.25 1 2.26 2.24 2.26h13.16c1.23 0 2.24-1.01 2.24-2.26v-2.45c0-2.17 1.06-4.17 2.76-5.51 4.33-3.42 7.1-8.7 7.1-14.65 0-.55-.04-1.09-.08-1.62H13.4z"></path>
  <path fill="#f4a300" d="M50.69 22.37c0 5.94-2.78 11.24-7.11 14.65-1.7 1.33-2.76 3.33-2.76 5.5v2.46c0 1.25-1.02 2.26-2.25 2.26H25.42a2.25 2.25 0 0 1-2.25-2.26V42.6c0-2.21-1.07-4.24-2.79-5.61-4.5-3.57-7.31-9.17-7.05-15.42.01-.28.05-.55.07-.83h.85c-.02 5.96 2.61 11.27 6.72 14.71 1.63 1.37 2.66 3.41 2.66 5.61v2.38c0 1.25.94 2.26 2.12 2.26h12.5c1.17 0 2.13-1.01 2.13-2.26V41c0-2.17 1-4.17 2.62-5.51 4.11-3.42 6.74-8.71 6.74-14.65v-.09h.85c.06.54.1 1.07.1 1.62z"></path>
  <path fill="#f4a300" d="M30.89 45.71h2.23v1.54h-2.23z"></path>
  <path fill="#dededf" d="M39.35 50.13H24.66c-.19 0-.35-.13-.4-.31l-.61-2.06c-.07-.26.13-.52.4-.52h15.91c.27 0 .47.26.4.52l-.61 2.06c-.05.18-.22.31-.4.31z"></path>
  <path fill="#e5e5e5" d="M36.91 61.64h-9.82a2.11 2.11 0 0 1-2.11-2.11v-9.41h14.03v9.41c.01 1.17-.94 2.11-2.1 2.11z"></path>
  <path fill="#bdbdbe" d="M35.38 61.64h-6.76c-1 0-1.81-.81-1.81-1.81v-9.7H37.2v9.7c0 1-.82 1.81-1.82 1.81z"></path>
  <g fill="#eff3f5">
    <path d="M24.65 51.66h14.69v1.02H24.65zM24.65 54.05h14.69v1.02H24.65zM24.65 56.43h14.69v1.02H24.65zM24.65 58.82h14.69v1.02H24.65z"></path>
  </g>
  <path fill="#687d87" d="M35.79 61.64h-7.58c.02.39.17.79.34 1.18h6.89c.18-.39.33-.78.35-1.18z"></path>
  <path fill="#dededf" d="M28.56 62.82c.06.12.1.24.16.36.27.51.8.82 1.37.82h3.82c.57 0 1.11-.31 1.37-.82.06-.12.11-.24.16-.36h-6.88z"></path>
  <path fill="#cc7a17" d="M33.12 45.71h1.04v1.54h-1.04zM29.85 45.71h1.04v1.54h-1.04z"></path>
  <path fill="#2e435a" d="m39.78 28.53-5.63 11.44v5.74h-1.04v-5.87c0-.08.02-.15.06-.22l5.12-10.39c-.15.14-.3.35-.46.57-.38.52-.82 1.09-1.55 1.09-.85 0-1.25-.76-1.54-1.31-.23-.46-.4-.77-.61-.77-.2 0-.37.31-.61.77-.29.55-.68 1.31-1.53 1.31-.86 0-1.25-.76-1.54-1.31-.24-.46-.4-.77-.61-.77-.2 0-.37.31-.61.77-.29.55-.68 1.31-1.54 1.31-.73 0-1.18-.59-1.58-1.09-.13-.17-.26-.34-.37-.47l5.07 10.29c.04.07.06.14.06.22v5.87h-1.04v-5.74L24.2 28.53a.465.465 0 0 1 .01-.47.52.52 0 0 1 .39-.27c1.17-.12 1.84.74 2.32 1.36.26.35.54.71.76.71.21 0 .38-.3.61-.77.29-.55.68-1.31 1.53-1.31s1.24.76 1.53 1.32c.24.46.4.76.62.76.2 0 .37-.3.6-.77.29-.55.68-1.31 1.53-1.31s1.25.76 1.54 1.31c.23.47.41.77.61.77.21 0 .46-.34.72-.69.47-.64 1.12-1.52 2.37-1.38.16.02.31.12.39.27.12.14.13.32.05.47z"></path>
  <path fill="#d08230" d="M11.34 15.87c-.23 0-.47-.07-.67-.21l-4.68-3.24c-.54-.37-.67-1.11-.3-1.64.37-.53 1.11-.67 1.64-.3l4.68 3.24c.54.37.67 1.11.3 1.64-.23.33-.6.51-.97.51zM7.99 28.35H2.45c-.65 0-1.18-.53-1.18-1.18 0-.65.53-1.18 1.18-1.18h5.54c.65 0 1.18.53 1.18 1.18 0 .65-.53 1.18-1.18 1.18zM61.55 28.35h-5.54c-.65 0-1.18-.53-1.18-1.18 0-.65.53-1.18 1.18-1.18h5.54c.65 0 1.18.53 1.18 1.18 0 .66-.53 1.18-1.18 1.18zm-8.88-12.47c-.37 0-.74-.18-.97-.51-.37-.54-.24-1.27.3-1.64l4.68-3.24c.54-.37 1.27-.24 1.64.3.37.54.24 1.27-.3 1.64l-4.68 3.24c-.21.14-.44.21-.67.21z"></path>
</svg>
