<svg xmlns="http://www.w3.org/2000/svg" xmlns:xlink="http://www.w3.org/1999/xlink" viewBox="0 0 64 64" id="bright">
  <defs>
    <linearGradient id="a" x1="1" x2="63" y1="32" y2="32" gradientUnits="userSpaceOnUse">
      <stop offset="0" stop-color="#3f622e"></stop>
      <stop offset=".04" stop-color="#557c3e"></stop>
      <stop offset=".05" stop-color="#5d8341"></stop>
      <stop offset=".1" stop-color="#7e9f4b"></stop>
      <stop offset=".14" stop-color="#96b352"></stop>
      <stop offset=".18" stop-color="#a4bf56"></stop>
      <stop offset=".21" stop-color="#a9c358"></stop>
      <stop offset=".34" stop-color="#c7c95e"></stop>
      <stop offset=".56" stop-color="#f9d467"></stop>
      <stop offset=".65" stop-color="#f9d56a"></stop>
      <stop offset=".73" stop-color="#f9d775"></stop>
      <stop offset=".8" stop-color="#fadb86"></stop>
      <stop offset=".87" stop-color="#fbe19f"></stop>
      <stop offset=".94" stop-color="#fce9bf"></stop>
      <stop offset=".94" stop-color="#fce9c0"></stop>
    </linearGradient>
    <linearGradient xlink:href="#a" id="b" x1="40" x2="54" y1="17" y2="17"></linearGradient>
    <linearGradient xlink:href="#a" id="c" x1="46" x2="48" y1="7.5" y2="7.5"></linearGradient>
    <linearGradient xlink:href="#a" id="d" x1="46" x2="48" y1="26.5" y2="26.5"></linearGradient>
    <linearGradient xlink:href="#a" id="e" x1="55" x2="58" y1="17" y2="17"></linearGradient>
    <linearGradient xlink:href="#a" id="f" x1="36" x2="39" y1="17" y2="17"></linearGradient>
    <linearGradient xlink:href="#a" id="g" x1="51.95" x2="55.49" y1="10.28" y2="10.28" gradientTransform="rotate(45 53.713 10.278)"></linearGradient>
    <linearGradient xlink:href="#a" id="h" x1="38.51" x2="42.05" y1="23.72" y2="23.72" gradientTransform="rotate(45 40.286 23.717)"></linearGradient>
    <linearGradient xlink:href="#a" id="i" x1="51.95" x2="55.49" y1="23.72" y2="23.72" gradientTransform="rotate(45.01 53.714 23.713)"></linearGradient>
    <linearGradient xlink:href="#a" id="j" x1="38.51" x2="42.05" y1="10.28" y2="10.28" gradientTransform="rotate(45.01 40.272 10.279)"></linearGradient>
  </defs>
  <path fill="url(#a)" d="M47 1a16 16 0 0 0-14.93 21.75l-3 3.74A9 9 0 0 0 22 23H4a1 1 0 0 0-1 1v2a5 5 0 0 0 2.52 4.32A3 3 0 0 0 5 32v6a9 9 0 0 0 6.33 8.59A15.11 15.11 0 0 0 3.8 55.2 4 4 0 0 0 5 63h25a1 1 0 0 0 1-1V52a7 7 0 0 0-4.19-6.41 8.81 8.81 0 0 0 1-.73A6 6 0 0 0 31 33.36v-1.25l7.75-1.41A16 16 0 1 0 47 1ZM7 38v-6a1 1 0 0 1 1-1h10a3 3 0 0 1 3 3v2a1 1 0 0 0 1 1 1 1 0 0 1 0 2 1 1 0 0 0-1 1v5h-7a7 7 0 0 1-7-7ZM5.58 61H5a2 2 0 0 1 0-4h.58a5 5 0 0 1 0 4ZM25 61H7.7a6.82 6.82 0 0 0 0-4H20a1 1 0 0 0 1-1v-3a2 2 0 0 1 4 0Zm4-9v9h-2v-8a4 4 0 0 0-8 0v2H6a13.08 13.08 0 0 1 12-8h6a5 5 0 0 1 5 5Zm0-14a7 7 0 0 1-6 6.92v-4.09a3 3 0 0 0 0-5.66V34a5 5 0 0 0-5-5H8a3 3 0 0 1-3-3v-1h17a7 7 0 0 1 5.81 3.12l-2.59 3.26A1 1 0 0 0 26 33a.55.55 0 0 0 .18 0l2.82-.53Zm4 1a4 4 0 0 1-3.5 4 8.92 8.92 0 0 0 1.5-5v-2.46A4 4 0 0 1 33 39Zm14-8a13.94 13.94 0 0 1-7.51-2.2 1 1 0 0 0-.54-.16h-.18l-10.33 1.9 5.56-7a1 1 0 0 0 .13-1A14 14 0 1 1 47 31Z"></path>
  <path fill="url(#b)" d="M47 10a7 7 0 1 0 7 7 7 7 0 0 0-7-7Zm0 12a5 5 0 1 1 5-5 5 5 0 0 1-5 5Z"></path>
  <path fill="url(#c)" d="M46 6h2v3h-2z"></path>
  <path fill="url(#d)" d="M46 25h2v3h-2z"></path>
  <path fill="url(#e)" d="M55 16h3v2h-3z"></path>
  <path fill="url(#f)" d="M36 16h3v2h-3z"></path>
  <path fill="url(#g)" d="M52.22 9.28h3v2h-3z" transform="rotate(-45 53.721 10.288)"></path>
  <path fill="url(#h)" d="M38.78 22.72h3v2h-3z" transform="rotate(-45 40.283 23.714)"></path>
  <path fill="url(#i)" d="M52.72 22.22h2v3h-2z" transform="rotate(-45.01 53.714 23.725)"></path>
  <path fill="url(#j)" d="M39.28 8.78h2v3h-2z" transform="rotate(-45.01 40.28 10.283)"></path>
</svg>
