<svg xmlns="http://www.w3.org/2000/svg" width="32" height="32" id="calendar">
  <path fill="#eceff8" d="M11.5 7.5h9m2.25 0H25c.831 0 1.5.67 1.5 1.5v16c0 .831-.669 1.5-1.5 1.5H7c-.831 0-1.5-.669-1.5-1.5V9c0-.83.669-1.5 1.5-1.5h2.25"></path>
  <path fill="#c4d7e5" fill-rule="evenodd" d="M26.498 13 23.5 24.5c.554 0 1 .446 1 1s-.446 1-1 1H25c.831 0 1.5-.669 1.5-1.5l-.002-12z"></path>
  <path fill="#8fc961" fill-rule="evenodd" d="m15.999 19.5-1.723 1.723-.178.178a1.227 1.227 0 0 1-1.739 0 1.227 1.227 0 0 1 0-1.74l.162-.161-.162-.162a1.227 1.227 0 0 1 0-1.74 1.226 1.226 0 0 1 1.74 0l.177.179zm.002 0 1.723-1.723.178-.178a1.227 1.227 0 0 1 1.739 0 1.227 1.227 0 0 1 0 1.74l-.162.161.162.162a1.227 1.227 0 0 1 0 1.74 1.226 1.226 0 0 1-1.739 0l-.178-.178zm0-.001-1.724-1.723-.178-.178a1.227 1.227 0 0 1 0-1.739 1.227 1.227 0 0 1 1.74 0l.161.162.162-.162a1.227 1.227 0 0 1 1.74 0 1.227 1.227 0 0 1 0 1.74l-.178.177zM16 19.5l1.723 1.723.178.178a1.227 1.227 0 0 1 0 1.739 1.228 1.228 0 0 1-1.74 0L16 22.979l-.162.162a1.228 1.228 0 0 1-1.74 0 1.227 1.227 0 0 1 0-1.739l.179-.178z"></path>
  <path fill="#f04b4d" d="M7 7.5c-.83 0-1.5.67-1.5 1.5v3.5h21V9c0-.83-.669-1.5-1.5-1.5H7z"></path>
  <path fill="#015e85" d="M10.5 4.5c.554 0 1 .446 1 1v4c0 .554-.446 1-1 1s-1-.446-1-1v-4c0-.554.446-1 1-1zm11 0c.554 0 1 .446 1 1v4c0 .554-.446 1-1 1s-1-.446-1-1v-4c0-.554.446-1 1-1z"></path>
  <path d="M7 1027.361c-1.1 0-2 .901-2 2v16c0 1.1.9 2 2 2h18c1.1 0 2-.9 2-2v-16c0-1.099-.9-2-2-2h-2.25a.5.5 0 1 0 0 1H25c.563 0 1 .438 1 1v16c0 .563-.437 1-1 1H7c-.563 0-1-.437-1-1v-16c0-.562.437-1 1-1h2.25a.5.5 0 1 0 0-1H7zm4.5 0a.5.5 0 1 0 0 1h9a.5.5 0 1 0 0-1h-9z" color="#000" font-family="sans-serif" font-weight="400" overflow="visible" style="line-height:normal;text-indent:0;text-align:start;text-decoration-line:none;text-decoration-style:solid;text-decoration-color:#000;text-transform:none;block-progression:tb;isolation:auto;mix-blend-mode:normal" transform="translate(0 -1020.362)"></path>
  <path fill-rule="evenodd" d="M6 1032.361a.5.5 0 1 0 0 1h20a.5.5 0 1 0 0-1H6z" color="#000" font-family="sans-serif" font-weight="400" overflow="visible" style="line-height:normal;text-indent:0;text-align:start;text-decoration-line:none;text-decoration-style:solid;text-decoration-color:#000;text-transform:none;block-progression:tb;isolation:auto;mix-blend-mode:normal" transform="translate(0 -1020.362)"></path>
  <path d="M10.5 1024.361c-.822 0-1.5.678-1.5 1.5v4c0 .823.678 1.5 1.5 1.5s1.5-.677 1.5-1.5v-4c0-.822-.678-1.5-1.5-1.5zm0 1c.286 0 .5.215.5.5v4c0 .286-.214.5-.5.5a.488.488 0 0 1-.5-.5v-4c0-.285.214-.5.5-.5zm11-1c-.822 0-1.5.678-1.5 1.5v4c0 .823.678 1.5 1.5 1.5s1.5-.677 1.5-1.5v-4c0-.822-.678-1.5-1.5-1.5zm0 1c.286 0 .5.215.5.5v4c0 .286-.214.5-.5.5a.488.488 0 0 1-.5-.5v-4c0-.285.214-.5.5-.5zm2 19a.5.5 0 1 0 0 1c.286 0 .5.214.5.5 0 .286-.214.5-.5.5a.5.5 0 1 0 0 1c.822 0 1.5-.677 1.5-1.5 0-.822-.678-1.5-1.5-1.5z" color="#000" font-family="sans-serif" font-weight="400" overflow="visible" style="line-height:normal;text-indent:0;text-align:start;text-decoration-line:none;text-decoration-style:solid;text-decoration-color:#000;text-transform:none;block-progression:tb;isolation:auto;mix-blend-mode:normal" transform="translate(0 -1020.362)"></path>
  <path fill-rule="evenodd" d="M26.47 1032.855a.5.5 0 0 0-.456.381l-2.998 11.5a.5.5 0 1 0 .968.252l2.998-11.5a.5.5 0 0 0-.511-.633zm-13.241 4.247c-.445 0-.889.167-1.225.503-.597.598-.577 1.503-.113 2.176.026.064.01.027.033.08.014.025-.022.053-.033.08-.464.674-.484 1.579.113 2.176a1.74 1.74 0 0 0 2.45 0l.177-.178 1.723-1.722a.502.502 0 0 0 0-.71l-1.723-1.724-.178-.178a1.726 1.726 0 0 0-1.224-.504zm-.514 1.214a.713.713 0 0 1 1.027 0h.002l.178.178 1.367 1.37-1.367 1.366-.178.178h-.002a.713.713 0 0 1-1.027 0 .716.716 0 0 1 0-1.03l.16-.161a.502.502 0 0 0 0-.71l-.16-.161a.715.715 0 0 1 0-1.03z" color="#000" font-family="sans-serif" font-weight="400" overflow="visible" style="line-height:normal;text-indent:0;text-align:start;text-decoration-line:none;text-decoration-style:solid;text-decoration-color:#000;text-transform:none;block-progression:tb;isolation:auto;mix-blend-mode:normal" transform="translate(0 -1020.362)"></path>
  <path fill-rule="evenodd" d="M18.771 1037.102c-.444 0-.888.17-1.224.505l-.178.178-1.723 1.723a.502.502 0 0 0 0 .709l1.723 1.724.178.178a1.739 1.739 0 0 0 2.45 0c.596-.597.576-1.502.112-2.176-.03-.072-.01-.027-.033-.08-.014-.025.022-.053.033-.08.464-.673.484-1.578-.113-2.175a1.728 1.728 0 0 0-1.225-.506zm-.513 1.214a.713.713 0 0 1 1.027 0 .716.716 0 0 1 0 1.03l-.16.162a.502.502 0 0 0 0 .709l.16.162a.716.716 0 0 1 0 1.03.713.713 0 0 1-1.027 0l-.18-.179-1.367-1.367 1.367-1.369z" color="#000" font-family="sans-serif" font-weight="400" overflow="visible" style="line-height:normal;text-indent:0;text-align:start;text-decoration-line:none;text-decoration-style:solid;text-decoration-color:#000;text-transform:none;block-progression:tb;isolation:auto;mix-blend-mode:normal" transform="translate(0 -1020.362)"></path>
  <path fill-rule="evenodd" d="M14.969 1035.361c-.444 0-.889.17-1.225.506a1.738 1.738 0 0 0 0 2.448l.178.177 1.723 1.725a.502.502 0 0 0 .71 0l1.723-1.725.178-.177a1.738 1.738 0 0 0 0-2.448c-.597-.597-1.502-.577-2.176-.113-.08.04-.027.012-.078.033-.026.014-.055-.022-.082-.033-.294-.203-.606-.39-.951-.39zm-.514 1.215a.715.715 0 0 1 1.03 0l.16.162a.502.502 0 0 0 .71 0l.163-.162a.715.715 0 0 1 1.029 0 .715.715 0 0 1 0 1.03l-.178.177L16 1039.15l-1.367-1.367-.178-.178a.715.715 0 0 1 0-1.029z" color="#000" font-family="sans-serif" font-weight="400" overflow="visible" style="line-height:normal;text-indent:0;text-align:start;text-decoration-line:none;text-decoration-style:solid;text-decoration-color:#000;text-transform:none;block-progression:tb;isolation:auto;mix-blend-mode:normal" transform="translate(0 -1020.362)"></path>
  <path fill-rule="evenodd" d="M15.992 1039.361a.493.493 0 0 0-.347.147l-1.723 1.723-.178.177a1.74 1.74 0 0 0 0 2.45c.597.596 1.503.576 2.176.113.068-.042.027-.012.08-.033.025-.014.053.022.08.033.674.463 1.579.483 2.176-.114a1.739 1.739 0 0 0 0-2.449l-.178-.177-1.723-1.723a.502.502 0 0 0-.363-.147zm.008 1.213 1.367 1.367.18.178a.715.715 0 0 1 0 1.03.718.718 0 0 1-1.031 0l-.16-.163a.502.502 0 0 0-.711 0l-.163.162a.716.716 0 0 1-1.029 0 .715.715 0 0 1 0-1.029l.178-.178 1.369-1.367Z" color="#000" font-family="sans-serif" font-weight="400" overflow="visible" style="line-height:normal;text-indent:0;text-align:start;text-decoration-line:none;text-decoration-style:solid;text-decoration-color:#000;text-transform:none;block-progression:tb;isolation:auto;mix-blend-mode:normal" transform="translate(0 -1020.362)"></path>
</svg>
