<svg xmlns="http://www.w3.org/2000/svg" viewBox="0 0 64 64" id="challenge-idea">
  <g>
    <path fill="#c3cb23" d="M5 32c0 .68 0 1.36.09 2A20.5 20.5 0 0 1 6 6H6a20.5 20.5 0 0 1 28-.91C33.36 5 32.68 5 32 5A27 27 0 0 0 5 32zM58 58h0a20.5 20.5 0 0 1-28 .91c.66.06 1.34.09 2 .09A27 27 0 0 0 59 32c0-.68 0-1.36-.09-2A20.5 20.5 0 0 1 58 58z" opacity=".3"></path>
    <path fill="#535353" d="M59.05,24.75A27.35,27.35,0,0,0,56.25,18a28.05,28.05,0,0,0-4.45-5.8,1,1,0,0,0-1.42,1.42A25.75,25.75,0,0,1,54,18.15l-3.46,2a22,22,0,0,0-3-3.71,1,1,0,0,0-1.42,0L42.58,20A15.75,15.75,0,0,0,40,18.15a15.54,15.54,0,0,0-3.86-1.61,16.08,16.08,0,0,0-7.3-.22l-1.05-3.87a20.14,20.14,0,0,1,9.39.23,19.56,19.56,0,0,1,4.82,2h0a1,1,0,0,0,.75.1,1,1,0,0,0,.62-.47l3-5.19a1.06,1.06,0,0,0,.1-.3s0-.05,0-.07a.74.74,0,0,0,0-.26.57.57,0,0,0,0-.13s-.06-.1-.08-.16A1,1,0,0,0,46.3,8a.81.81,0,0,0-.1-.09.82.82,0,0,0-.2-.17A27,27,0,0,0,39.25,5a28.28,28.28,0,0,0-14.5,0A27,27,0,0,0,18,7.76a.82.82,0,0,0-.2.17.81.81,0,0,0-.1.09,1,1,0,0,0-.09.18c0,.06-.06.11-.08.16a.57.57,0,0,0,0,.13.74.74,0,0,0,0,.26s0,.05,0,.07a1.06,1.06,0,0,0,.1.3l3,5.19a1,1,0,1,0,1.74-1L19.88,9a24.77,24.77,0,0,1,5.39-2.12,26.07,26.07,0,0,1,13.47,0A24.89,24.89,0,0,1,44.12,9l-2,3.46A21.83,21.83,0,0,0,26.3,10.74h0a1,1,0,0,0-.18.09.91.91,0,0,0-.17.09.61.61,0,0,0-.13.15.89.89,0,0,0-.13.14,1,1,0,0,0-.06.18,1.27,1.27,0,0,0-.06.18,1.62,1.62,0,0,0,0,.22c0,.06,0,.12,0,.18h0l1.31,4.86A16.1,16.1,0,0,0,24,18.14,16.42,16.42,0,0,0,21.42,20l-7.8-7.8a1,1,0,0,0-1.42,0A27.66,27.66,0,0,0,7.76,18,27,27,0,0,0,5,24.75,28.07,28.07,0,0,0,4,32a1,1,0,0,0,2,0,25.86,25.86,0,0,1,.89-6.73A25,25,0,0,1,9.49,19a25.54,25.54,0,0,1,3.44-4.65L20,21.42A16.42,16.42,0,0,0,18.14,24a15.9,15.9,0,0,0-1.6,3.86,16.14,16.14,0,0,0,0,8.28,17.06,17.06,0,0,0,1.13,3l-4.36,2.51a1,1,0,0,0,1,1.74l4.36-2.52a16,16,0,0,0,5.33,5,15.47,15.47,0,0,0,2.9,1.32L25.59,52h0c0,.06,0,.12,0,.18a1.62,1.62,0,0,0,0,.22,1.27,1.27,0,0,0,.06.18,1,1,0,0,0,.06.18l.13.14a.61.61,0,0,0,.13.15.53.53,0,0,0,.17.08.64.64,0,0,0,.18.1h0A22.73,22.73,0,0,0,31,54v4a25.86,25.86,0,0,1-5.74-.86A25,25,0,0,1,19,54.51a25.54,25.54,0,0,1-4.65-3.44l2.82-2.83A21.85,21.85,0,0,0,21,51.06a1,1,0,0,0,1-1.74,19.51,19.51,0,0,1-4.14-3.18,1,1,0,0,0-1.42,0l-3.51,3.51A26.07,26.07,0,0,1,9.48,45a25.37,25.37,0,0,1-2.32-5.31L12,38.41h0c.06,0,.1-.06.16-.08a1.14,1.14,0,0,0,.19-.1h0s0,0,.06-.07l.08-.08a1.34,1.34,0,0,0,.11-.14h0s0,0,0-.06l0-.1a.68.68,0,0,0,.07-.2s0-.07,0-.1a1,1,0,0,0,0-.3,20.07,20.07,0,0,1,0-10.36,19.92,19.92,0,0,1,2-4.82,1,1,0,0,0-.36-1.37,1,1,0,0,0-1.37.37,22,22,0,0,0-2.2,5.3A22.52,22.52,0,0,0,10,32c0,.44,0,.88,0,1.33,0,.14,0,.27,0,.41,0,.31.05.61.09.92l.06.48c0,.29.09.57.14.86l.09.47c0,.09,0,.17,0,.26L5.66,38a1.06,1.06,0,0,0-.35.18s0,0-.06.07a1,1,0,0,0-.2.22s0,0,0,.06a1,1,0,0,0-.1.3s0,.07,0,.11a1,1,0,0,0,0,.29H5A27.35,27.35,0,0,0,7.75,46a28.05,28.05,0,0,0,4.45,5.8A27.66,27.66,0,0,0,18,56.24a27,27,0,0,0,6.75,2.81A28,28,0,0,0,32,60a1,1,0,0,0,1-1V53a1,1,0,0,0-1-1,20.63,20.63,0,0,1-4.21-.45l1.05-3.87A16,16,0,0,0,32,48a16.17,16.17,0,0,0,4.14-.54,16.47,16.47,0,0,0,3-1.13l2.51,4.36a1,1,0,0,0,1.74-1l-2.52-4.36a16.17,16.17,0,0,0,5-5.33,15.9,15.9,0,0,0,1.6-3.86,1,1,0,1,0-1.94-.52A13.84,13.84,0,0,1,44.13,39,14.15,14.15,0,0,1,39,44.12h0a14.08,14.08,0,0,1-10.62,1.39h0A13.84,13.84,0,0,1,25,44.13,14.15,14.15,0,0,1,19.88,39a13.49,13.49,0,0,1-1.4-3.38,13.89,13.89,0,0,1,0-7.24A13.49,13.49,0,0,1,19.88,25a14,14,0,0,1,3.77-4.22A15.92,15.92,0,0,1,25,19.87a13.84,13.84,0,0,1,3.38-1.39h0a13.89,13.89,0,0,1,7.24,0A13.49,13.49,0,0,1,39,19.88,14.07,14.07,0,0,1,44.13,25a13.84,13.84,0,0,1,1.39,3.38h0a1.29,1.29,0,0,0,.17.33l.08.08A.69.69,0,0,0,46,29l.11.06.22.08.13,0h.08l.26,0h0l4.8-1.29A20.45,20.45,0,0,1,52,32a1,1,0,0,0,2,0,22.52,22.52,0,0,0-.74-5.7h0a.64.64,0,0,0-.11-.2.69.69,0,0,0-.07-.15,1,1,0,0,0-1-.36H52L47.17,26.9A15.91,15.91,0,0,0,44,21.42l2.83-2.83A19.72,19.72,0,0,1,49.32,22h0l.09.12.08.09a.83.83,0,0,0,.21.16h0a1,1,0,0,0,.49.13,1,1,0,0,0,.25,0l.08,0,.17-.07h0L55,19.88a24.77,24.77,0,0,1,2.12,5.39,25.89,25.89,0,0,1,0,13.46A25,25,0,0,1,54.51,45a25.54,25.54,0,0,1-3.44,4.65l-2.83-2.82a21.81,21.81,0,0,0,5-9.13,1,1,0,1,0-1.94-.52,20,20,0,0,1-5.18,9,1,1,0,0,0,0,1.42l3.51,3.51A26.07,26.07,0,0,1,45,54.52a25.57,25.57,0,0,1-5.31,2.31L38.41,52a1,1,0,0,0-1.94.52L38,58.34h0a1,1,0,0,0,.09.18s0,.09,0,.12a1.21,1.21,0,0,0,.19.2l0,0a.87.87,0,0,0,.27.14h0a1.13,1.13,0,0,0,.32,0l.26,0h0A27.19,27.19,0,0,0,46,56.25a28.05,28.05,0,0,0,5.8-4.45A27.66,27.66,0,0,0,56.24,46a27,27,0,0,0,2.81-6.75,28.14,28.14,0,0,0,0-14.5Z"></path>
    <path fill="#c3cb23" d="M35,38H29a1,1,0,0,1-1-1,7.38,7.38,0,0,0-1.47-4.64,6.94,6.94,0,0,1-1.44-5.48,7.07,7.07,0,0,1,6.07-5.83A7,7,0,0,1,39,28a6.89,6.89,0,0,1-1.37,4.15A7.71,7.71,0,0,0,36,36.66V37A1,1,0,0,1,35,38Zm-5-2H34a9.84,9.84,0,0,1,2-5A5,5,0,0,0,31.39,23a5,5,0,0,0-4.33,4.15,5,5,0,0,0,1,3.92A9,9,0,0,1,30,36Z"></path>
    <path fill="#c3cb23" d="M32,42a4,4,0,0,1-4-4V37a1,1,0,0,1,1-1h6a1,1,0,0,1,1,1v1A4,4,0,0,1,32,42Zm-2-4a2,2,0,0,0,4,0Z"></path>
  </g>
</svg>
