<svg xmlns="http://www.w3.org/2000/svg" viewBox="0 0 128 128" id="painting">
  <polygon fill="#f4beae" points="87.34 104.68 89.01 121.9 95 121.9 95.31 104.68 87.34 104.68"></polygon>
  <path fill="#303a44" d="M95.42,120.19a.33.33,0,0,0-.42-.07l-1,.51c-1.3.69-3.45,1.32-4.78-1.21a.29.29,0,0,0-.4-.13l-3.46,1.93s-4.62-1.66-5.51,1c0,0-.86,2.67,0,3.2.69.42,5.46.66,7.59.54a9.26,9.26,0,0,0,2.28-1.07l0,.49a.61.61,0,0,0,.61.58h5.24a.94.94,0,0,0,.85-.51A6.19,6.19,0,0,0,95.42,120.19Z"></path>
  <rect width="8.28" height="62.61" x="42.98" y="28.38" fill="#96613d" rx="1.6"></rect>
  <path fill="#bd8d5a" d="M43 2H37.09a1.47 1.47 0 00-1.44 1.16l-21.3 99.41a1.47 1.47 0 001.44 1.78h5.89a1.47 1.47 0 001.43-1.16L44.41 3.77A1.46 1.46 0 0043 2zM79.47 102.57L58.17 3.16A1.46 1.46 0 0056.74 2H50.85a1.47 1.47 0 00-1.44 1.77l21.3 99.42a1.49 1.49 0 001.44 1.16H78A1.47 1.47 0 0079.47 102.57z"></path>
  <rect width="82.14" height="54.97" x="5.84" y="6.15" fill="#e6e6e6" rx="5.15"></rect>
  <rect width="66.27" height="8.34" x="13.78" y="71.22" fill="#bd8d5a" rx="1.46"></rect>
  <path fill="#8883cf" d="M27,24.33a3.5,3.5,0,0,0,1.14-.76c2-2.09,1.91-8.17-1.45-8.19-3.09,0-4.9,5-5.16,5.85-.58-.62-4.31-4.48-7.12-3.19-3,1.41-.6,7,2.07,8.06a3.42,3.42,0,0,0,1.35.21C17,27.42,16.18,28.85,16.59,30c.78,2.19,5.69,1.78,6.11-1.31a4.72,4.72,0,0,0-.89-3.92l-.14-3.08,1.15,2.85a4.74,4.74,0,0,0,.8,3.95c1.67,2.64,6.3,1,6.11-1.34C29.63,25.94,28.29,25,27,24.33Z"></path>
  <path fill="#5f728e" d="M21.35 19h0a.18.18 0 01-.22-.14c-.62-3 2.15-4.54 2.18-4.56a.17.17 0 01.24.07.18.18 0 01-.07.25 4 4 0 00-2 4.16A.18.18 0 0121.35 19zM20.83 19.07a.19.19 0 01-.22-.14 4.06 4.06 0 00-3.54-3 .18.18 0 01-.16-.2.17.17 0 01.19-.16s3.21.29 3.87 3.24a.18.18 0 01-.14.22z"></path>
  <path fill="#303a44" d="M23.33 13.92a.49.49 0 00-.24.63.48.48 0 00.65.15.47.47 0 00.25-.62A.48.48 0 0023.33 13.92zM16.92 15.31a.48.48 0 01.48.47.51.51 0 01-1 0A.48.48 0 0116.92 15.31zM21.73 19.67a1 1 0 10-.95.21 15.64 15.64 0 00.46 4.76c.63 2.9 1.59 5.15 2.16 5s.51-2.57-.12-5.47A16.18 16.18 0 0021.73 19.67z"></path>
  <path fill="#e04166" d="M46.12,27.48a2,2,0,0,1-.76-.05,2.42,2.42,0,0,1,.25,2.17c-.7,1.1-3.33.27-3.18-1.47a2.67,2.67,0,0,1,1-2l.46-1.67-1,1.43a2.61,2.61,0,0,1-.92,2c-1.24,1.24-3.57-.24-3.18-1.48.21-.66,1.06-1,1.82-1.21a2.15,2.15,0,0,1-.53-.56c-.82-1.39,0-4.71,1.81-4.29s2.05,3.36,2.1,3.82c.39-.26,2.9-1.91,4.29-.86S47.72,27.21,46.12,27.48Z"></path>
  <path fill="#5f728e" d="M44.64 23.1h0a.11.11 0 010-.14 2.5 2.5 0 012.51-1.3.1.1 0 01.09.12.1.1 0 01-.11.09 2.26 2.26 0 00-2.31 1.18A.1.1 0 0144.64 23.1zM44.37 23a.1.1 0 010-.13 2.26 2.26 0 00-.58-2.52.11.11 0 01.14-.16 2.52 2.52 0 01.63 2.76.1.1 0 01-.14 0z"></path>
  <path fill="#303a44" d="M47.23 21.52a.25.25 0 10-.08.49.26.26 0 00.32-.2A.27.27 0 0047.23 21.52zM43.9 20a.26.26 0 01.05.37.26.26 0 01-.37 0A.25.25 0 1143.9 20zM44.57 23.55a.56.56 0 00.48-.33.57.57 0 00-.28-.76.57.57 0 00-.7.86 8.77 8.77 0 00-1.4 2.28c-.71 1.51-1 2.84-.75 3s1.1-1 1.81-2.49A9.27 9.27 0 0044.57 23.55z"></path>
  <path fill="#29abce" d="M72.32,19.07c-.36-.64-1.33-.82-2.17-.86a2.17,2.17,0,0,0,.44-.69c.55-1.63-1-4.91-2.82-4.08s-1.4,4-1.35,4.45c-.46-.19-3.44-1.36-4.64,0s1.4,3.93,3.12,3.86a2.38,2.38,0,0,0,.78-.23,2.59,2.59,0,0,0,.22,2.32c1,1,3.53-.45,3-2.23a2.79,2.79,0,0,0-1.46-1.9l-.84-1.64,1.34,1.27a2.82,2.82,0,0,0,1.41,1.94C70.9,22.33,73,20.28,72.32,19.07Z"></path>
  <path fill="#5f728e" d="M65.74 16.71h0a.1.1 0 01-.15 0 2.65 2.65 0 010-3 .11.11 0 01.16 0 .1.1 0 010 .15 2.4 2.4 0 000 2.75A.1.1 0 0165.74 16.71zM65.49 16.9a.1.1 0 01-.15 0 2.42 2.42 0 00-2.66-.72.11.11 0 01-.07-.21 2.64 2.64 0 012.9.8.1.1 0 010 .15z"></path>
  <path fill="#303a44" d="M65.56 13.49a.28.28 0 000 .4.27.27 0 00.39-.08.29.29 0 000-.4A.29.29 0 0065.56 13.49zM62.43 15.84a.27.27 0 11.2.49.28.28 0 01-.38-.14A.28.28 0 0162.43 15.84zM66.13 17a.63.63 0 00-.07-.62.61.61 0 10-.4 1 9.52 9.52 0 001.43 2.46c1.06 1.42 2.15 2.4 2.42 2.19s-.36-1.52-1.42-2.94A9.61 9.61 0 0066.13 17z"></path>
  <path fill="#3ac286" d="M23,55.81c2.19-14.33,11.7-19.27,14.8-20.52a.2.2,0,0,1,.2.33,27.69,27.69,0,0,0-9,20.19Z"></path>
  <path fill="#25a36c" d="M15.69,55.81s-1.16-12,5.21-19.12c0,0-3.11,15.28-1.58,19.12Z"></path>
  <path fill="#3ac286" d="M23.39,55.81C21.64,44.36,14,40.4,11.56,39.4a.16.16,0,0,0-.16.27,22.14,22.14,0,0,1,7.22,16.14Z"></path>
  <path fill="#25a36c" d="M24,55.81s-1.15-12,5.22-19.12c0,0-3.12,15.28-1.59,19.12Z"></path>
  <path fill="#3ac286" d="M32.16 55.81C30 41.48 20.47 36.54 17.36 35.29a.19.19 0 00-.19.33 27.71 27.71 0 019 20.19zM33.31 55.81C35.5 41.48 45 36.54 48.11 35.29a.19.19 0 01.19.33 27.71 27.71 0 00-9 20.19z"></path>
  <path fill="#25a36c" d="M32.25,55.81s-1.16-12,5.21-19.12c0,0-3.11,15.28-1.58,19.12Z"></path>
  <path fill="#3ac286" d="M40.84,55.81C39.09,44.36,31.49,40.4,29,39.4a.16.16,0,0,0-.15.27,22.14,22.14,0,0,1,7.22,16.14Z"></path>
  <path fill="#25a36c" d="M45,55.81s-1.16-12,5.21-19.12c0,0-3.11,15.28-1.58,19.12Z"></path>
  <path fill="#3ac286" d="M48.72,55.81C46.53,41.48,37,36.54,33.92,35.29a.19.19,0,0,0-.19.33,27.71,27.71,0,0,1,9,20.19Z"></path>
  <path fill="#303a44" d="M58.5,29.32l1,1.26,1.45-.53a2.87,2.87,0,0,0,1.6-3.3,11.51,11.51,0,0,1-.39-3.11.39.39,0,0,0-.59-.33A6.1,6.1,0,0,0,58.5,29.32Z"></path>
  <path fill="#96613d" d="M61,29.9l-2.46-.83a.17.17,0,0,0-.22.1c-.8,2-1.49,4.63-2.33,7.43-2,6.63-3,12.21-2.17,12.46s3.09-4.94,5.1-11.57c.85-2.8,1.76-5.29,2.2-7.38A.2.2,0,0,0,61,29.9Z"></path>
  <polygon fill="#f4beae" points="103.5 104.68 105.16 121.9 111.16 121.9 111.47 104.68 103.5 104.68"></polygon>
  <polygon fill="#29abce" points="86.02 83.14 84.67 109.21 97.87 109.21 99.46 97.11 101.71 109.21 114.75 109.64 113.21 83.14 86.02 83.14"></polygon>
  <rect width="8.5" height="10.82" x="98.8" y="40.58" fill="#e4b1a0"></rect>
  <path fill="#f4beae" d="M91.46,23.53s1.39,3.35.94,5a22.92,22.92,0,0,0-1,8.66c.3,4.26,2,6.39,4.56,6.85,0,0,16.35,3.24,18.77-6.56,2-8,1.91-21.92-5.74-24S91.77,16.16,91.46,23.53Z"></path>
  <path fill="#37424c" d="M120,15.67a18.63,18.63,0,0,0-1.62-2.35A15.64,15.64,0,0,0,98.91,9.5a15.84,15.84,0,0,0-6.54,6.63c-2.63,4.92-1.24,7.4-1.24,7.4s.64.36,2.77-1.16a14.89,14.89,0,0,1,1.37,9.9h1.52s1.19-6.44,4.11-5.79c3.82.85.18,5.67.8,10.44a4.08,4.08,0,0,0,3.49,3c3.16.14,8.31.14,10.93-1.07C120.08,37,125.1,24.35,120,15.67Z"></path>
  <path fill="#f4beae" d="M79.69,52.94l-7.91-.28L62.66,41a3.32,3.32,0,0,0-1.07-.88l-1.76-5.36L59,36.88l-1.42-2.34s-.35-1-1.21-.8-.52,1.55-.52,1.55-.43-1.25-1.5-.79,0,2,0,2-1-.44-1.29.34,1,1.69,1,1.69-1.23-.65-1.32.46c0,.57,1.08,1.56,1.08,1.56l3.2,3.2a3.13,3.13,0,0,0,.57,1.12l10,12.9A3.23,3.23,0,0,0,70.05,59l9.64.34Z"></path>
  <path fill="#37424c" d="M111.57,120.19a.32.32,0,0,0-.41-.07l-1,.51c-1.3.69-3.45,1.32-4.79-1.21a.28.28,0,0,0-.39-.13l-3.46,1.93s-4.63-1.66-5.52,1c0,0-.85,2.67,0,3.2.69.42,5.46.66,7.59.54a9.44,9.44,0,0,0,2.28-1.07l0,.49a.61.61,0,0,0,.61.58h5.25a1,1,0,0,0,.85-.51A6.17,6.17,0,0,0,111.57,120.19Z"></path>
  <path fill="#e04166" d="M116,54.71c-.17-3-1-5.59-3.29-6.56-.89-.39-3.18-1.1-4.14-1.39a1.15,1.15,0,0,0-.81.09,10.45,10.45,0,0,1-4.84,1.06,8.16,8.16,0,0,1-3.71-1.32,1.08,1.08,0,0,0-1.11,0,18.88,18.88,0,0,1-4.81,1.29c-2.86.58-3.62,2.33-5.38,2.61A55.41,55.41,0,0,1,77.22,51l-.66,10.41,9.81.39L85.12,86.07l28.73-.45s-.34-15.65.86-20.57A38.49,38.49,0,0,0,116,54.71Z"></path>
  <polygon fill="#d03558" points="86.36 61.82 91.9 61.82 91.9 70.12 94.96 71.22 91.09 79.56 93.67 84.07 102.15 85.81 85.12 86.07 86.36 61.82"></polygon>
  <path fill="#d03558" d="M114.71,65.05c-1.2,4.92-.86,20.57-.86,20.57-.62-5.3-10.8-7.39-10.8-7.39,5.09-.63,7.35-2.84,7.35-2.84,2.53-2.72,1.65-4.9,1.65-4.9l-3.94-3.42c5.93-2,7.61-10.88,7.85-12.36A38.49,38.49,0,0,1,114.71,65.05Z"></path>
</svg>
